<svg width="120" height="120" viewBox="0 0 120 120" fill="none" xmlns="http://www.w3.org/2000/svg">
<circle cx="60" cy="60" r="56" stroke="#3A94E6" stroke-width="8"/>
<path d="M34.2836 48.1818V70H28.3603V53.6364H28.2324L23.4597 56.4915V51.4631L28.829 48.1818H34.2836ZM48.2662 70.5966C46.2846 70.5895 44.573 70.1314 43.1312 69.2223C41.6895 68.3132 40.5779 67.0028 39.7967 65.2912C39.0154 63.5795 38.6284 61.527 38.6355 59.1335C38.6426 56.733 39.0332 54.6946 39.8074 53.0185C40.5886 51.3423 41.6966 50.0675 43.1312 49.1939C44.573 48.3203 46.2846 47.8835 48.2662 47.8835C50.2477 47.8835 51.9593 48.3239 53.4011 49.2045C54.8429 50.0781 55.9544 51.353 56.7356 53.0291C57.5169 54.7053 57.9039 56.7401 57.8968 59.1335C57.8968 61.5412 57.5062 63.6009 56.725 65.3125C55.9437 67.0241 54.8322 68.3345 53.3904 69.2436C51.9558 70.1456 50.2477 70.5966 48.2662 70.5966ZM48.2662 65.7812C49.2889 65.7812 50.127 65.2486 50.7804 64.1832C51.4409 63.1108 51.7676 61.4276 51.7605 59.1335C51.7605 57.6349 51.6113 56.4098 51.313 55.4581C51.0147 54.5064 50.6028 53.8033 50.0772 53.3487C49.5517 52.8871 48.948 52.6562 48.2662 52.6562C47.2434 52.6562 46.4089 53.1747 45.7626 54.2116C45.1163 55.2486 44.786 56.8892 44.7718 59.1335C44.7647 60.6605 44.9103 61.9176 45.2086 62.9048C45.5069 63.8849 45.9189 64.6094 46.4444 65.0781C46.9771 65.5469 47.5843 65.7812 48.2662 65.7812ZM70.1802 70.5966C68.1987 70.5895 66.487 70.1314 65.0453 69.2223C63.6035 68.3132 62.492 67.0028 61.7108 65.2912C60.9295 63.5795 60.5424 61.527 60.5495 59.1335C60.5566 56.733 60.9473 54.6946 61.7214 53.0185C62.5027 51.3423 63.6106 50.0675 65.0453 49.1939C66.487 48.3203 68.1987 47.8835 70.1802 47.8835C72.1618 47.8835 73.8734 48.3239 75.3152 49.2045C76.7569 50.0781 77.8684 51.353 78.6497 53.0291C79.4309 54.7053 79.818 56.7401 79.8109 59.1335C79.8109 61.5412 79.4203 63.6009 78.639 65.3125C77.8578 67.0241 76.7463 68.3345 75.3045 69.2436C73.8699 70.1456 72.1618 70.5966 70.1802 70.5966ZM70.1802 65.7812C71.2029 65.7812 72.041 65.2486 72.6944 64.1832C73.3549 63.1108 73.6816 61.4276 73.6745 59.1335C73.6745 57.6349 73.5254 56.4098 73.2271 55.4581C72.9288 54.5064 72.5169 53.8033 71.9913 53.3487C71.4657 52.8871 70.862 52.6562 70.1802 52.6562C69.1575 52.6562 68.323 53.1747 67.6767 54.2116C67.0304 55.2486 66.7001 56.8892 66.6859 59.1335C66.6788 60.6605 66.8244 61.9176 67.1227 62.9048C67.421 63.8849 67.8329 64.6094 68.3585 65.0781C68.8912 65.5469 69.4984 65.7812 70.1802 65.7812ZM95.0772 65.9091V64.7585C95.0772 63.8352 95.2761 62.983 95.6738 62.2017C96.0787 61.4205 96.6646 60.7919 97.4316 60.3161C98.1987 59.8402 99.1326 59.6023 100.233 59.6023C101.363 59.6023 102.311 59.8366 103.078 60.3054C103.852 60.7741 104.438 61.3991 104.836 62.1804C105.233 62.9616 105.432 63.821 105.432 64.7585V65.9091C105.432 66.8324 105.23 67.6847 104.825 68.4659C104.427 69.2472 103.841 69.8757 103.067 70.3516C102.293 70.8274 101.349 71.0653 100.233 71.0653C99.1184 71.0653 98.1774 70.8274 97.4103 70.3516C96.6433 69.8757 96.0609 69.2472 95.6632 68.4659C95.2726 67.6847 95.0772 66.8324 95.0772 65.9091ZM98.7846 64.7585V65.9091C98.7846 66.3139 98.8841 66.7152 99.0829 67.1129C99.2889 67.5036 99.6724 67.6989 100.233 67.6989C100.823 67.6989 101.21 67.5071 101.395 67.1236C101.586 66.7401 101.682 66.3352 101.682 65.9091V64.7585C101.682 64.3324 101.594 63.9205 101.416 63.5227C101.238 63.125 100.844 62.9261 100.233 62.9261C99.6724 62.9261 99.2889 63.125 99.0829 63.5227C98.8841 63.9205 98.7846 64.3324 98.7846 64.7585ZM83.6568 53.4233V52.2727C83.6568 51.3352 83.8592 50.4759 84.264 49.6946C84.676 48.9134 85.2654 48.2884 86.0325 47.8196C86.7995 47.3509 87.7264 47.1165 88.813 47.1165C89.9423 47.1165 90.8904 47.3509 91.6575 47.8196C92.4316 48.2884 93.0176 48.9134 93.4153 49.6946C93.813 50.4759 94.0119 51.3352 94.0119 52.2727V53.4233C94.0119 54.3608 93.8095 55.2166 93.4047 55.9908C93.0069 56.7649 92.421 57.3828 91.6468 57.8445C90.8727 58.3061 89.9281 58.5369 88.813 58.5369C87.698 58.5369 86.7569 58.3026 85.9899 57.8338C85.2228 57.3651 84.6404 56.7436 84.2427 55.9695C83.8521 55.1953 83.6568 54.3466 83.6568 53.4233ZM87.4068 52.2727V53.4233C87.4068 53.8494 87.5062 54.2543 87.7051 54.6378C87.9039 55.0213 88.2733 55.2131 88.813 55.2131C89.4025 55.2131 89.7896 55.0213 89.9743 54.6378C90.166 54.2543 90.2619 53.8494 90.2619 53.4233V52.2727C90.2619 51.8466 90.1731 51.4347 89.9956 51.0369C89.818 50.6392 89.4238 50.4403 88.813 50.4403C88.252 50.4403 87.8755 50.6463 87.6838 51.0582C87.4991 51.4631 87.4068 51.8679 87.4068 52.2727ZM85.4679 70L100.468 48.1818H103.493L88.4934 70H85.4679Z" fill="#006FFF"/>
</svg>
