<svg width="120" height="120" viewBox="0 0 120 120" fill="none" xmlns="http://www.w3.org/2000/svg">
<circle cx="60" cy="60" r="56" stroke="#3A94E6" stroke-width="8"/>
<path d="M16.1553 74V46.3636H23.6581V57.1591H33.5899V46.3636H41.0928V74H33.5899V63.2045H23.6581V74H16.1553ZM58.2036 64.9318V53.2727H65.6524V74H58.5814V70.0597H58.3655C57.9157 71.3821 57.1285 72.4167 56.004 73.1634C54.8795 73.901 53.5435 74.2699 51.9962 74.2699C50.5478 74.2699 49.2793 73.937 48.1908 73.2713C47.1112 72.6056 46.2701 71.688 45.6673 70.5185C45.0736 69.349 44.7722 68.0085 44.7632 66.4972V53.2727H52.2121V64.9318C52.2211 65.9574 52.482 66.7625 52.9948 67.3473C53.5165 67.9321 54.2452 68.2244 55.1808 68.2244C55.8016 68.2244 56.3369 68.094 56.7867 67.8331C57.2455 67.5632 57.5963 67.1854 57.8392 66.6996C58.0911 66.2048 58.2126 65.6155 58.2036 64.9318ZM76.8898 62.3409V74H69.441V46.3636H76.6199V57.2131H76.8358C77.3037 55.8906 78.0818 54.8606 79.1704 54.1229C80.2589 53.3762 81.5679 53.0028 83.0972 53.0028C84.5636 53.0028 85.8366 53.3357 86.9161 54.0014C88.0046 54.6671 88.8458 55.5848 89.4395 56.7543C90.0423 57.9238 90.3392 59.2642 90.3302 60.7756V74H82.8813V62.3409C82.8903 61.3153 82.6339 60.5102 82.1121 59.9254C81.5993 59.3407 80.8662 59.0483 79.9126 59.0483C79.3098 59.0483 78.779 59.1832 78.3202 59.4531C77.8704 59.714 77.5196 60.0919 77.2677 60.5866C77.0248 61.0724 76.8988 61.6572 76.8898 62.3409ZM102.644 46.3636L101.942 65.3636H95.7886L95.0869 46.3636H102.644ZM98.8653 74.4318C97.8218 74.4318 96.9266 74.0675 96.18 73.3388C95.4423 72.6011 95.0779 71.706 95.0869 70.6534C95.0779 69.6278 95.4423 68.7507 96.18 68.022C96.9266 67.2933 97.8218 66.929 98.8653 66.929C99.8549 66.929 100.728 67.2933 101.483 68.022C102.248 68.7507 102.635 69.6278 102.644 70.6534C102.635 71.3551 102.45 71.9938 102.09 72.5696C101.74 73.1364 101.281 73.5907 100.714 73.9325C100.147 74.2654 99.531 74.4318 98.8653 74.4318Z" fill="#006FFF"/>
</svg>
