<svg width="50" height="48" viewBox="0 0 50 48" fill="none" xmlns="http://www.w3.org/2000/svg">
<path d="M29.4264 37.1725C29.7937 36.8051 30 36.3069 30 35.7874C30 35.2679 29.7937 34.7697 29.4264 34.4023L19.7289 24.7048L29.4264 15.0072C29.7833 14.6377 29.9807 14.1429 29.9763 13.6292C29.9718 13.1155 29.7658 12.6242 29.4025 12.2609C29.0393 11.8977 28.5479 11.6917 28.0343 11.6872C27.5206 11.6827 27.0257 11.8802 26.6562 12.2371L15.5736 23.3197C15.2063 23.6871 15 24.1853 15 24.7048C15 25.2243 15.2063 25.7225 15.5736 26.0899L26.6562 37.1725C27.0236 37.5398 27.5218 37.7461 28.0413 37.7461C28.5608 37.7461 29.059 37.5398 29.4264 37.1725Z" fill="#2D2D2D" fill-opacity="0.8"/>
</svg>
