<svg width="19" height="12" viewBox="0 0 19 12" fill="none" xmlns="http://www.w3.org/2000/svg">
<path d="M0 1.6C0 1.30826 0.0988494 1.02847 0.274803 0.822183C0.450756 0.615893 0.6894 0.5 0.938235 0.5H17.8265C18.0753 0.5 18.3139 0.615893 18.4899 0.822183C18.6659 1.02847 18.7647 1.30826 18.7647 1.6C18.7647 1.89174 18.6659 2.17153 18.4899 2.37782C18.3139 2.58411 18.0753 2.7 17.8265 2.7H0.938235C0.6894 2.7 0.450756 2.58411 0.274803 2.37782C0.0988494 2.17153 0 1.89174 0 1.6ZM0 6C0 5.70826 0.0988494 5.42847 0.274803 5.22218C0.450756 5.01589 0.6894 4.9 0.938235 4.9H17.8265C18.0753 4.9 18.3139 5.01589 18.4899 5.22218C18.6659 5.42847 18.7647 5.70826 18.7647 6C18.7647 6.29174 18.6659 6.57153 18.4899 6.77782C18.3139 6.98411 18.0753 7.1 17.8265 7.1H0.938235C0.6894 7.1 0.450756 6.98411 0.274803 6.77782C0.0988494 6.57153 0 6.29174 0 6ZM0.938235 9.3C0.6894 9.3 0.450756 9.41589 0.274803 9.62218C0.0988494 9.82847 0 10.1083 0 10.4C0 10.6917 0.0988494 10.9715 0.274803 11.1778C0.450756 11.3841 0.6894 11.5 0.938235 11.5H17.8265C18.0753 11.5 18.3139 11.322 18.4899 11.1157C18.6659 10.9094 18.7647 10.5822 18.7647 10.2904C18.7647 9.99869 18.6659 9.83672 18.4899 9.63043C18.3139 9.42414 18.0753 9.3 17.8265 9.3H0.938235Z" fill="#2D2D2D"/>
</svg>
