<svg width="19" height="20" viewBox="0 0 19 20" fill="none" xmlns="http://www.w3.org/2000/svg">
<path fill-rule="evenodd" clip-rule="evenodd" d="M5.27778 4.72222C5.27778 3.60242 5.72262 2.52848 6.51444 1.73666C7.30626 0.94484 8.3802 0.5 9.5 0.5C10.6198 0.5 11.6937 0.94484 12.4856 1.73666C13.2774 2.52848 13.7222 3.60242 13.7222 4.72222C13.7222 5.84203 13.2774 6.91596 12.4856 7.70778C11.6937 8.4996 10.6198 8.94444 9.5 8.94444C8.3802 8.94444 7.30626 8.4996 6.51444 7.70778C5.72262 6.91596 5.27778 5.84203 5.27778 4.72222ZM5.27778 11.0556C3.87802 11.0556 2.5356 11.6116 1.54583 12.6014C0.55605 13.5912 0 14.9336 0 16.3333C0 17.1732 0.33363 17.9786 0.927495 18.5725C1.52136 19.1664 2.32681 19.5 3.16667 19.5H15.8333C16.6732 19.5 17.4786 19.1664 18.0725 18.5725C18.6664 17.9786 19 17.1732 19 16.3333C19 14.9336 18.444 13.5912 17.4542 12.6014C16.4644 11.6116 15.122 11.0556 13.7222 11.0556H5.27778Z" fill="#2D2D2D"/>
</svg>
