<svg width="24" height="25" viewBox="0 0 24 25" fill="none" xmlns="http://www.w3.org/2000/svg">
<g clip-path="url(#clip0_222_86)">
<path d="M12.2578 18.9766C14.2693 18.9766 15.9141 17.2891 15.9141 15.2266V7.53906C15.9141 5.47656 14.2693 3.78906 12.2578 3.78906C10.2463 3.78906 8.60156 5.47656 8.60156 7.53906V15.2266C8.60156 17.2891 10.2463 18.9766 12.2578 18.9766ZM16.6648 11.3828V15.2266C16.6648 17.7076 14.6878 19.7266 12.2578 19.7266C9.82781 19.7266 7.85156 17.7091 7.85156 15.2266V11.3828H5.60156V15.2266C5.60156 18.5588 7.99781 21.3256 11.1313 21.8716V23.4766H8.60231V25.7266H15.9148V23.4766H13.3821V21.8716C16.5171 21.3271 18.9126 18.5588 18.9126 15.2266V11.3828H16.6648Z" fill="#2D2D2D"/>
</g>
<defs>
<clipPath id="clip0_222_86">
<rect width="24" height="24" fill="white" transform="translate(0 0.5)"/>
</clipPath>
</defs>
</svg>
