<svg width="425" height="400" viewBox="0 0 425 400" fill="none" xmlns="http://www.w3.org/2000/svg">
<circle cx="199.995" cy="199.995" r="199.995" fill="#006FFF" fill-opacity="0.1"/>
<circle cx="201.996" cy="201.996" r="99.9975" fill="#0085FF" fill-opacity="0.2"/>
<circle cx="397.992" cy="302.992" r="26.9993" fill="#006FFF"/>
<circle cx="35.9997" cy="89.9977" r="11.9997" fill="#006FFF"/>
<path d="M201.277 222.932C211.334 222.932 219.557 214.494 219.557 204.182V165.746C219.557 155.433 211.334 146.996 201.277 146.996C191.219 146.996 182.996 155.433 182.996 165.746V204.182C182.996 214.494 191.219 222.932 201.277 222.932ZM223.311 184.964V204.182C223.311 216.587 213.426 226.682 201.277 226.682C189.127 226.682 179.246 216.594 179.246 204.182V184.964H167.996V204.182C167.996 220.843 179.977 234.676 195.644 237.406V245.431H182.999V256.681H219.561V245.431H206.898V237.406C222.572 234.684 234.549 220.843 234.549 204.182V184.964H223.311Z" fill="#006FFF"/>
</svg>
