<svg width="83" height="80" viewBox="0 0 83 80" fill="none" xmlns="http://www.w3.org/2000/svg">
<path d="M19.4558 62.7935C18.7659 62.6555 18.214 62.5175 17.524 62.2416C16.8341 61.9656 16.2822 61.8276 15.7302 61.5516C14.4884 60.9997 13.3845 60.3098 12.2806 59.4819C10.0729 57.964 8.27908 55.8943 6.89923 53.4105C5.51939 51.0648 4.69148 48.3051 4.55349 45.6834C4.41551 44.3035 4.55349 43.0617 4.69148 41.6818C4.82946 40.9919 4.96745 40.44 5.10543 39.75C5.24342 39.0601 5.51939 38.5082 5.65737 37.8183L5.79535 39.75C5.79535 40.44 5.93334 40.9919 6.07132 41.6818C6.20931 42.9237 6.48528 44.1656 6.76125 45.2694C7.31319 47.6152 8.14109 49.8229 9.38296 51.8927C10.6248 53.9625 12.0047 55.8943 13.7985 57.6881C14.6264 58.516 15.5923 59.3439 16.5582 60.1718C16.9721 60.5857 17.524 60.9997 18.076 61.4136L19.4558 62.7935ZM19.0419 67.7609C18.6279 68.0369 18.076 68.1749 17.524 68.3129C16.9721 68.4509 16.5582 68.5889 16.0062 68.5889C15.0403 68.7268 13.9364 68.8648 12.8326 68.7268C10.7628 68.5888 8.55505 68.0369 6.76125 67.071C4.82946 66.1051 3.17365 64.5873 2.06977 62.7935C1.51783 61.9656 0.965893 60.9997 0.551939 60.0338C0.413954 59.6198 0.275969 59.0679 0.137984 58.516C0.137984 58.102 0 57.6881 0 57.1361C0.413954 57.5501 0.689923 57.964 0.965892 58.24C1.37985 58.6539 1.65582 59.0679 1.93178 59.3439C2.62171 60.0338 3.17365 60.7237 3.86357 61.2757C5.24342 62.5175 6.62326 63.6214 8.27908 64.4493C9.79691 65.2772 11.5907 65.9671 13.2465 66.5191C14.0744 66.795 15.0403 66.933 16.0062 67.209C16.4202 67.347 16.9721 67.347 17.3861 67.485C18.076 67.623 18.4899 67.623 19.0419 67.7609ZM50.2264 0.700376C50.9163 0.838361 51.4683 1.11433 52.1582 1.3903C52.8481 1.66627 53.4001 1.94224 53.952 2.21821C55.1939 2.90813 56.2977 3.59805 57.4016 4.42596C59.6094 6.08178 61.4032 8.28953 62.645 10.7733C63.8869 13.257 64.5768 16.0167 64.5768 18.6384C64.5768 20.0182 64.4388 21.2601 64.1629 22.6399C64.0249 23.3299 63.8869 23.8818 63.6109 24.5717C63.3349 25.2617 63.197 25.8136 62.921 26.3655L62.783 24.4337C62.783 23.7438 62.783 23.1919 62.645 22.502L62.2311 18.7764C61.8171 16.4306 60.9892 14.0849 59.8853 11.8771C58.7815 9.66938 57.4016 7.7376 55.7458 5.9438C54.9179 4.9779 53.952 4.14999 53.1241 3.1841C52.7101 2.77015 52.1582 2.35619 51.6063 1.94224L50.2264 0.700376ZM62.2311 0.148438C62.783 0.286422 63.197 0.424407 63.6109 0.700376C64.0249 0.838361 64.5768 1.11433 64.9908 1.3903C65.8187 1.94224 66.6466 2.49418 67.4745 3.1841C68.9923 4.56395 70.2342 6.21976 70.9241 8.15155C71.752 10.0833 72.028 12.1531 71.752 14.2229C71.614 15.1888 71.3381 16.1547 71.0621 17.1206C70.9241 17.5345 70.6481 18.0864 70.5101 18.5004C70.2342 18.9144 70.0962 19.3283 69.6822 19.7423V18.3624V16.9826C69.6822 16.0167 69.5443 15.1888 69.5443 14.3609C69.2683 12.5671 68.9923 10.9112 68.3024 9.39341C67.6125 7.7376 66.7846 6.35775 65.8187 4.83992C65.2667 4.14999 64.7148 3.32209 64.1629 2.63216C63.8869 2.21821 63.6109 1.94224 63.197 1.52828C62.921 0.838361 62.507 0.424407 62.2311 0.148438Z" fill="#42ADE2"/>
<path d="M11.0563 20.6995C8.2966 21.9413 7.33071 25.2529 8.57257 28.0126L25.9586 64.3026L35.6175 59.7491L18.2315 23.3212C16.9896 20.5615 13.816 19.3196 11.0563 20.6995ZM56.7292 49.5383L66.9401 44.7088L47.0703 3.31339C45.6904 0.553694 42.3788 -0.688168 39.4811 0.691679C36.7214 2.07153 35.4796 5.38316 36.8594 8.28084L56.7292 49.5383Z" fill="#FFDD67"/>
<path d="M39.6092 0.563699C39.3332 0.701684 39.0572 0.839668 38.7812 1.11564C41.403 0.425714 44.1627 1.66758 45.4045 4.1513L65.2743 45.5467L67.0681 44.7188L47.1983 3.32339C45.8185 0.425715 42.5068 -0.816148 39.6092 0.563699Z" fill="#EBA352"/>
<path d="M35.6092 59.605L46.234 54.4995L25.9502 12.2762C24.5704 9.37854 20.9828 7.99869 18.0851 9.37854C15.1874 10.7584 13.9456 14.346 15.3254 17.2437L35.6092 59.605Z" fill="#FFDD67"/>
<path d="M18.0857 9.54517C17.8098 9.68315 17.5338 9.82114 17.2578 10.0971C19.8795 9.40718 22.9152 10.649 24.157 13.2708L36.7136 39.6258L39.7493 41.4196L25.9508 12.4428C24.571 9.40718 21.1214 8.16532 18.0857 9.54517Z" fill="#EBA352"/>
<path d="M44.5584 51.2161L55.1832 46.1107L34.8995 3.88734C33.5196 0.98966 29.932 -0.390187 27.0343 1.12764C24.1367 2.50749 22.8948 6.09509 24.2746 8.99277L44.5584 51.2161Z" fill="#FFDD67"/>
<path d="M27.0646 0.959229C26.7886 1.09721 26.5127 1.37318 26.2367 1.51117C28.8584 0.821244 31.8941 2.06311 33.1359 4.68482L47.3483 34.4895L50.384 36.2833L34.9297 3.85691C33.5499 0.821244 29.9623 -0.420618 27.0646 0.959229ZM11.0584 20.691C10.7824 20.829 10.5064 20.967 10.2305 21.243C12.7142 20.5531 15.3359 21.7949 16.4398 24.2786L26.7886 45.9422L29.8243 47.736L18.2336 23.4507C16.9917 20.5531 13.8181 19.3112 11.0584 20.691Z" fill="#EBA352"/>
<path d="M81.1263 16.5749C77.4007 13.6772 71.3293 16.8509 68.2937 26.7858C66.2239 33.685 65.9479 35.7548 61.5324 37.8246L59.0487 32.7191C59.0487 32.7191 19.8611 51.623 21.3789 54.6587C21.3789 54.6587 26.0704 69.2851 34.0735 76.0463C45.9402 86.2572 73.6751 75.3564 74.9169 49.0013C75.6069 33.685 85.1278 19.7486 81.1263 16.5749Z" fill="#FFDD67"/>
<path d="M81.1358 16.5675C80.4459 16.0155 79.6179 15.7395 78.79 15.6016C78.928 15.7395 79.204 15.7395 79.342 15.8775C83.4815 19.0512 79.204 26.3644 76.8583 32.9876C74.9265 38.231 73.2706 43.6125 73.5466 48.8559C74.6505 71.7613 51.6071 82.6621 37.8086 78.5226C51.3311 84.18 76.4443 73.4171 75.3404 49.5458C75.0644 44.3024 76.5823 39.1969 78.6521 33.6776C80.8598 27.0543 85.1373 19.7411 81.1358 16.5675Z" fill="#EBA352"/>
<path d="M62.7786 37.25C54.2235 38.2159 41.6669 50.4965 50.4979 63.881C44.0127 50.3585 54.6375 41.2516 61.3987 38.0779C62.0887 37.526 62.7786 37.25 62.7786 37.25Z" fill="#EBA352"/>
</svg>
