<svg width="34" height="34" viewBox="0 0 34 34" fill="none" xmlns="http://www.w3.org/2000/svg">
<g clip-path="url(#clip0_198_1070)">
<path d="M20.8886 0.924118C21.1363 1.02837 21.3477 1.20327 21.4965 1.42698C21.6454 1.6507 21.725 1.9133 21.7254 2.18198V32.2614C21.7254 32.5306 21.6458 32.7938 21.4968 33.018C21.3478 33.2423 21.1358 33.4175 20.8876 33.5217C20.6394 33.626 20.3659 33.6546 20.1014 33.6041C19.837 33.5535 19.5934 33.426 19.4011 33.2376L11.3972 25.3759H6.68572C5.59787 25.3759 4.55458 24.9438 3.78535 24.1745C3.01613 23.4053 2.58398 22.362 2.58398 21.2742V13.0981C2.58398 12.0102 3.01613 10.9669 3.78535 10.1977C4.55458 9.42847 5.59787 8.99633 6.68572 8.99633H11.4L19.4038 1.20304C19.5962 1.01533 19.8397 0.888501 20.1038 0.838407C20.3679 0.788312 20.6409 0.819908 20.8886 0.924118ZM18.9909 5.41962L12.9121 11.3453C12.6562 11.5948 12.3126 11.7342 11.9551 11.7336H6.68572C6.3231 11.7336 5.97534 11.8776 5.71893 12.134C5.46252 12.3904 5.31847 12.7382 5.31847 13.1008V21.2742C5.31847 21.6368 5.46252 21.9846 5.71893 22.241C5.97534 22.4974 6.3231 22.6414 6.68572 22.6414H11.9578C12.3157 22.6415 12.6593 22.7819 12.9149 23.0325L18.9909 29.0018V5.41962ZM24.7634 9.53229C24.8752 9.39161 25.0136 9.27435 25.1708 9.1872C25.3279 9.10006 25.5007 9.04475 25.6792 9.02443C25.8578 9.00412 26.0386 9.01919 26.2113 9.0688C26.384 9.1184 26.5452 9.20156 26.6858 9.31353L26.6912 9.31626L26.6967 9.32173L26.7104 9.33267L26.7514 9.36822L26.8772 9.4776C26.9756 9.57057 27.1096 9.69636 27.2655 9.8659C27.5745 10.2022 27.9764 10.6917 28.3729 11.3425C29.1687 12.6551 29.9398 14.6048 29.9398 17.2162C29.9398 19.8249 29.1687 21.7773 28.3729 23.0899C28.0539 23.6186 27.6829 24.1142 27.2655 24.5692C27.0916 24.7581 26.9072 24.9371 26.7131 25.1052L26.6912 25.1243H26.6885C26.6885 25.1243 25.4662 25.7888 24.7662 24.9111C24.5411 24.6294 24.4363 24.2703 24.4747 23.9118C24.5131 23.5533 24.6916 23.2245 24.9712 22.9969L24.9767 22.9914L25.0259 22.9477C25.0751 22.9012 25.1572 22.8246 25.2584 22.7153C25.5512 22.3937 25.8113 22.0437 26.035 21.6707C26.6092 20.7273 27.2053 19.2589 27.2053 17.2135C27.2053 15.1708 26.6092 13.7051 26.035 12.7645C25.7538 12.3003 25.4158 11.8732 25.0287 11.4929C24.8791 11.3841 24.7532 11.2461 24.6586 11.0873C24.5639 10.9284 24.5024 10.7521 24.4779 10.5688C24.4534 10.3855 24.4662 10.1991 24.5158 10.021C24.5653 9.84283 24.6505 9.67658 24.7662 9.53229" fill="#BBBBBB"/>
</g>
<defs>
<clipPath id="clip0_198_1070">
<rect width="32.814" height="32.814" fill="white" transform="translate(0.533203 0.814453)"/>
</clipPath>
</defs>
</svg>
