<svg width="36" height="36" viewBox="0 0 36 36" fill="none" xmlns="http://www.w3.org/2000/svg">
<path fill-rule="evenodd" clip-rule="evenodd" d="M2.27734 22.4325C2.27734 23.354 2.6434 24.2377 3.29498 24.8893C3.94656 25.5409 4.83029 25.9069 5.75176 25.9069H9.22618V23.5907H5.75176C5.4446 23.5907 5.15003 23.4686 4.93283 23.2514C4.71564 23.0343 4.59362 22.7397 4.59362 22.4325V6.21856C4.59362 5.9114 4.71564 5.61682 4.93283 5.39963C5.15003 5.18244 5.4446 5.06042 5.75176 5.06042H21.9657C22.2729 5.06042 22.5675 5.18244 22.7846 5.39963C23.0018 5.61682 23.1239 5.9114 23.1239 6.21856V9.69298H12.7006C11.7791 9.69298 10.8954 10.059 10.2438 10.7106C9.59223 11.3622 9.22618 12.2459 9.22618 13.1674V29.3814C9.22618 30.3028 9.59223 31.1866 10.2438 31.8381C10.8954 32.4897 11.7791 32.8558 12.7006 32.8558H28.9146C29.836 32.8558 30.7198 32.4897 31.3713 31.8381C32.0229 31.1866 32.389 30.3028 32.389 29.3814V13.1674C32.389 12.2459 32.0229 11.3622 31.3713 10.7106C30.7198 10.059 29.836 9.69298 28.9146 9.69298H25.4401V6.21856C25.4401 5.29709 25.0741 4.41335 24.4225 3.76177C23.7709 3.11019 22.8872 2.74414 21.9657 2.74414H5.75176C4.83029 2.74414 3.94656 3.11019 3.29498 3.76177C2.6434 4.41335 2.27734 5.29709 2.27734 6.21856V22.4325ZM11.5425 13.1674C11.5425 12.8602 11.6645 12.5657 11.8817 12.3485C12.0989 12.1313 12.3934 12.0093 12.7006 12.0093H28.9146C29.2217 12.0093 29.5163 12.1313 29.7335 12.3485C29.9507 12.5657 30.0727 12.8602 30.0727 13.1674V29.3814C30.0727 29.6885 29.9507 29.9831 29.7335 30.2003C29.5163 30.4175 29.2217 30.5395 28.9146 30.5395H12.7006C12.3934 30.5395 12.0989 30.4175 11.8817 30.2003C11.6645 29.9831 11.5425 29.6885 11.5425 29.3814V13.1674Z" fill="#BBBBBB"/>
</svg>
