<svg width="39" height="40" viewBox="0 0 39 40" fill="none" xmlns="http://www.w3.org/2000/svg">
<path d="M13.8733 7.89017H13.5717C13.7376 7.89017 13.8733 7.75445 13.8733 7.58857V7.89017ZM13.8733 7.89017H25.3341V7.58857C25.3341 7.75445 25.4698 7.89017 25.6357 7.89017H25.3341V10.6046H28.0485V7.58857C28.0485 6.25777 26.9665 5.17578 25.6357 5.17578H13.5717C12.2409 5.17578 11.1589 6.25777 11.1589 7.58857V10.6046H13.8733V7.89017ZM32.874 10.6046H6.33335C5.66606 10.6046 5.12695 11.1437 5.12695 11.811V13.0174C5.12695 13.1832 5.26267 13.3189 5.42855 13.3189H7.70562L8.63681 33.036C8.69713 34.3215 9.76026 35.3357 11.0458 35.3357H28.1616C29.4509 35.3357 30.5103 34.3253 30.5706 33.036L31.5018 13.3189H33.7788C33.9447 13.3189 34.0804 13.1832 34.0804 13.0174V11.811C34.0804 11.1437 33.5413 10.6046 32.874 10.6046ZM27.8713 32.6213H11.3361L10.4238 13.3189H28.7836L27.8713 32.6213Z" fill="#BBBBBB"/>
</svg>
