<svg width="68" height="68" viewBox="0 0 68 68" fill="none" xmlns="http://www.w3.org/2000/svg">
<path d="M23.375 0C23.375 17.9452 13.6771 34 0 34C13.6771 34 23.375 50.0559 23.375 68C23.375 50.0559 33.0729 34 46.75 34C33.0729 34 23.375 17.9452 23.375 0Z" fill="#2D2D2D"/>
<path d="M51.0006 34C51.0006 42.9737 46.1533 51 39.3125 51C46.1533 51 51.0006 59.0285 51.0006 68C51.0006 59.0285 55.8478 51 62.6886 51C55.8478 51 51.0006 42.9737 51.0006 34Z" fill="#2D2D2D"/>
<path d="M56.3131 0C56.3131 8.9726 51.4658 17 44.625 17C51.4647 17 56.3131 25.0285 56.3131 34C56.3131 25.0285 61.1603 17 68.0011 17C61.1603 17 56.3131 8.9726 56.3131 0Z" fill="#2D2D2D"/>
</svg>
