<svg width="134" height="134" viewBox="0 0 134 134" fill="none" xmlns="http://www.w3.org/2000/svg">
<g opacity="0.6">
<circle cx="66.6667" cy="66.6667" r="66.6667" fill="#006FFF" fill-opacity="0.1"/>
<circle cx="67.3333" cy="67.3333" r="33.3333" fill="#0085FF" fill-opacity="0.2"/>
<circle cx="118" cy="101" r="9" fill="#006FFF"/>
<circle cx="12" cy="30" r="4" fill="#006FFF"/>
<path d="M67.0938 74.3125C70.4462 74.3125 73.1875 71.5 73.1875 68.0625V55.25C73.1875 51.8125 70.4462 49 67.0938 49C63.7413 49 61 51.8125 61 55.25V68.0625C61 71.5 63.7413 74.3125 67.0938 74.3125ZM74.4387 61.6562V68.0625C74.4387 72.1975 71.1438 75.5625 67.0938 75.5625C63.0437 75.5625 59.75 72.2 59.75 68.0625V61.6562H56V68.0625C56 73.6162 59.9938 78.2275 65.2163 79.1375V81.8125H61.0013V85.5625H73.1887V81.8125H68.9675V79.1375C74.1925 78.23 78.185 73.6162 78.185 68.0625V61.6562H74.4387Z" fill="#006FFF"/>
</g>
</svg>
