<svg width="100" height="105" viewBox="0 0 100 105" fill="none" xmlns="http://www.w3.org/2000/svg">
<path d="M100 50C100 77.6142 77.6142 100 50 100C22.3858 100 0 77.6142 0 50C0 22.3858 22.3858 0 50 0C77.6142 0 100 22.3858 100 50Z" fill="#006FFF" fill-opacity="0.1"/>
<path fill-rule="evenodd" clip-rule="evenodd" d="M38.8889 36.1111C38.8889 33.1643 40.0595 30.3381 42.1433 28.2544C44.227 26.1706 47.0531 25 50 25C52.9468 25 55.773 26.1706 57.8567 28.2544C59.9405 30.3381 61.1111 33.1643 61.1111 36.1111C61.1111 39.058 59.9405 41.8841 57.8567 43.9679C55.773 46.0516 52.9468 47.2222 50 47.2222C47.0531 47.2222 44.227 46.0516 42.1433 43.9679C40.0595 41.8841 38.8889 39.058 38.8889 36.1111ZM38.8889 52.7778C35.2053 52.7778 31.6726 54.2411 29.068 56.8457C26.4633 59.4504 25 62.9831 25 66.6667C25 68.8768 25.878 70.9964 27.4408 72.5592C29.0036 74.122 31.1232 75 33.3333 75H66.6667C68.8768 75 70.9964 74.122 72.5592 72.5592C74.122 70.9964 75 68.8768 75 66.6667C75 62.9831 73.5367 59.4504 70.932 56.8457C68.3274 54.2411 64.7947 52.7778 61.1111 52.7778H38.8889Z" fill="#69B4FF"/>
<g clip-path="url(#clip0_204_1373)">
<rect x="17" y="91" width="65" height="14" rx="4" fill="#006FFF"/>
<path d="M37.6841 99.352C37.6841 99.8747 37.5054 100.28 37.1481 100.568C36.7961 100.856 36.3214 101 35.7241 101H33.6201V95.256H35.6121C36.1934 95.256 36.6468 95.3867 36.9721 95.648C37.3028 95.904 37.4681 96.2747 37.4681 96.76C37.4681 97.032 37.3908 97.2773 37.2361 97.496C37.0814 97.7147 36.8654 97.8853 36.5881 98.008C36.9454 98.1093 37.2174 98.2773 37.4041 98.512C37.5908 98.7413 37.6841 99.0213 37.6841 99.352ZM35.5561 95.96H34.4281V97.688H35.5561C35.9028 97.688 36.1668 97.6107 36.3481 97.456C36.5348 97.3013 36.6281 97.0907 36.6281 96.824C36.6281 96.5573 36.5348 96.3467 36.3481 96.192C36.1668 96.0373 35.9028 95.96 35.5561 95.96ZM35.6681 98.392H34.4281V100.296H35.6681C36.0414 100.296 36.3294 100.211 36.5321 100.04C36.7401 99.8693 36.8441 99.632 36.8441 99.328C36.8441 99.0347 36.7401 98.8053 36.5321 98.64C36.3294 98.4747 36.0414 98.392 35.6681 98.392ZM40.3782 101.08C39.9676 101.08 39.6076 100.989 39.2982 100.808C38.9942 100.621 38.7569 100.36 38.5862 100.024C38.4156 99.688 38.3302 99.2987 38.3302 98.856C38.3302 98.4347 38.4182 98.0613 38.5942 97.736C38.7702 97.4107 39.0102 97.1547 39.3142 96.968C39.6182 96.776 39.9649 96.68 40.3542 96.68C40.6742 96.68 40.9596 96.7413 41.2102 96.864C41.4662 96.9813 41.6822 97.1493 41.8582 97.368C42.0396 97.5813 42.1702 97.8347 42.2502 98.128C42.3302 98.416 42.3516 98.7333 42.3142 99.08H38.8022V98.544H41.4582C41.4422 98.1493 41.3329 97.8427 41.1302 97.624C40.9329 97.4 40.6689 97.288 40.3382 97.288C40.0982 97.288 39.8876 97.352 39.7062 97.48C39.5302 97.6027 39.3916 97.7813 39.2902 98.016C39.1942 98.2453 39.1462 98.5253 39.1462 98.856C39.1462 99.1867 39.1942 99.472 39.2902 99.712C39.3862 99.9467 39.5249 100.128 39.7062 100.256C39.8876 100.384 40.1062 100.448 40.3622 100.448C40.6662 100.448 40.9169 100.371 41.1142 100.216C41.3169 100.061 41.4502 99.8453 41.5142 99.568H42.3142C42.2129 100.037 41.9889 100.408 41.6422 100.68C41.3009 100.947 40.8796 101.08 40.3782 101.08ZM44.7912 102.632C44.4232 102.632 44.1005 102.568 43.8232 102.44C43.5458 102.317 43.3272 102.139 43.1672 101.904C43.0125 101.669 42.9272 101.395 42.9112 101.08H43.6952C43.7218 101.373 43.8258 101.597 44.0072 101.752C44.1938 101.912 44.4525 101.992 44.7832 101.992C45.1512 101.992 45.4285 101.896 45.6152 101.704C45.8018 101.517 45.8952 101.24 45.8952 100.872V100.104C45.7725 100.355 45.5965 100.552 45.3672 100.696C45.1432 100.84 44.8872 100.912 44.5992 100.912C44.2472 100.912 43.9352 100.821 43.6632 100.64C43.3912 100.459 43.1778 100.208 43.0232 99.888C42.8685 99.568 42.7912 99.2027 42.7912 98.792C42.7912 98.3707 42.8658 98.0027 43.0152 97.688C43.1645 97.368 43.3725 97.12 43.6392 96.944C43.9112 96.768 44.2232 96.68 44.5752 96.68C44.8792 96.68 45.1485 96.752 45.3832 96.896C45.6178 97.04 45.8072 97.2453 45.9512 97.512V96.76H46.7032V100.856C46.7032 101.416 46.5352 101.851 46.1992 102.16C45.8632 102.475 45.3938 102.632 44.7912 102.632ZM43.6072 98.792C43.6072 99.2293 43.7085 99.576 43.9112 99.832C44.1138 100.083 44.3912 100.208 44.7432 100.208C44.9725 100.208 45.1725 100.152 45.3432 100.04C45.5192 99.9227 45.6552 99.76 45.7512 99.552C45.8472 99.3387 45.8952 99.0933 45.8952 98.816C45.8952 98.3787 45.7912 98.0293 45.5832 97.768C45.3752 97.5067 45.0952 97.376 44.7432 97.376C44.3965 97.376 44.1192 97.504 43.9112 97.76C43.7085 98.0107 43.6072 98.3547 43.6072 98.792ZM48.6297 101H47.8217V96.76H48.6297V101ZM48.8057 95.776C48.8057 95.9253 48.7497 96.0533 48.6377 96.16C48.5311 96.2613 48.3924 96.312 48.2217 96.312C48.0457 96.312 47.9017 96.2613 47.7897 96.16C47.6831 96.0533 47.6297 95.9253 47.6297 95.776C47.6297 95.616 47.6831 95.488 47.7897 95.392C47.9017 95.2907 48.0457 95.24 48.2217 95.24C48.3924 95.24 48.5311 95.2907 48.6377 95.392C48.7497 95.488 48.8057 95.616 48.8057 95.776ZM50.5594 98.608V101H49.7514V96.76H50.5034V97.464C50.6474 97.2293 50.8341 97.04 51.0634 96.896C51.2981 96.752 51.5621 96.68 51.8554 96.68C52.2927 96.68 52.6421 96.816 52.9034 97.088C53.1701 97.36 53.3034 97.7493 53.3034 98.256V101H52.4954V98.528C52.4954 98.1653 52.4181 97.8853 52.2634 97.688C52.1087 97.4907 51.8794 97.392 51.5754 97.392C51.3887 97.392 51.2181 97.4427 51.0634 97.544C50.9087 97.64 50.7861 97.7787 50.6954 97.96C50.6047 98.1413 50.5594 98.3573 50.5594 98.608ZM55.1844 98.608V101H54.3764V96.76H55.1284V97.464C55.2724 97.2293 55.4591 97.04 55.6884 96.896C55.9231 96.752 56.1871 96.68 56.4804 96.68C56.9177 96.68 57.2671 96.816 57.5284 97.088C57.7951 97.36 57.9284 97.7493 57.9284 98.256V101H57.1204V98.528C57.1204 98.1653 57.0431 97.8853 56.8884 97.688C56.7337 97.4907 56.5044 97.392 56.2004 97.392C56.0137 97.392 55.8431 97.4427 55.6884 97.544C55.5337 97.64 55.4111 97.7787 55.3204 97.96C55.2297 98.1413 55.1844 98.3573 55.1844 98.608ZM60.7454 101.08C60.3347 101.08 59.9747 100.989 59.6654 100.808C59.3614 100.621 59.1241 100.36 58.9534 100.024C58.7827 99.688 58.6974 99.2987 58.6974 98.856C58.6974 98.4347 58.7854 98.0613 58.9614 97.736C59.1374 97.4107 59.3774 97.1547 59.6814 96.968C59.9854 96.776 60.3321 96.68 60.7214 96.68C61.0414 96.68 61.3267 96.7413 61.5774 96.864C61.8334 96.9813 62.0494 97.1493 62.2254 97.368C62.4067 97.5813 62.5374 97.8347 62.6174 98.128C62.6974 98.416 62.7187 98.7333 62.6814 99.08H59.1694V98.544H61.8254C61.8094 98.1493 61.7001 97.8427 61.4974 97.624C61.3001 97.4 61.0361 97.288 60.7054 97.288C60.4654 97.288 60.2547 97.352 60.0734 97.48C59.8974 97.6027 59.7587 97.7813 59.6574 98.016C59.5614 98.2453 59.5134 98.5253 59.5134 98.856C59.5134 99.1867 59.5614 99.472 59.6574 99.712C59.7534 99.9467 59.8921 100.128 60.0734 100.256C60.2547 100.384 60.4734 100.448 60.7294 100.448C61.0334 100.448 61.2841 100.371 61.4814 100.216C61.6841 100.061 61.8174 99.8453 61.8814 99.568H62.6814C62.5801 100.037 62.3561 100.408 62.0094 100.68C61.6681 100.947 61.2467 101.08 60.7454 101.08ZM64.3485 98.832V101H63.5405V96.76H64.2925V97.656C64.4418 97.3627 64.6631 97.1307 64.9565 96.96C65.2551 96.7893 65.5778 96.704 65.9245 96.704V97.544C65.6205 97.528 65.3485 97.5627 65.1085 97.648C64.8738 97.7333 64.6871 97.8747 64.5485 98.072C64.4151 98.264 64.3485 98.5173 64.3485 98.832Z" fill="white"/>
</g>
<defs>
<clipPath id="clip0_204_1373">
<rect x="17" y="91" width="65" height="14" rx="4" fill="white"/>
</clipPath>
</defs>
</svg>
