<svg width="13" height="13" viewBox="0 0 13 13" fill="none" xmlns="http://www.w3.org/2000/svg">
<path fill-rule="evenodd" clip-rule="evenodd" d="M3.61111 2.88889C3.61111 2.12271 3.91548 1.38791 4.45725 0.846136C4.99902 0.304364 5.73382 0 6.5 0C7.26618 0 8.00098 0.304364 8.54275 0.846136C9.08453 1.38791 9.38889 2.12271 9.38889 2.88889C9.38889 3.65507 9.08453 4.38987 8.54275 4.93164C8.00098 5.47341 7.26618 5.77778 6.5 5.77778C5.73382 5.77778 4.99902 5.47341 4.45725 4.93164C3.91548 4.38987 3.61111 3.65507 3.61111 2.88889ZM3.61111 7.22222C2.65338 7.22222 1.73488 7.60268 1.05767 8.27989C0.380455 8.95711 0 9.87561 0 10.8333C0 11.408 0.228273 11.9591 0.634602 12.3654C1.04093 12.7717 1.59203 13 2.16667 13H10.8333C11.408 13 11.9591 12.7717 12.3654 12.3654C12.7717 11.9591 13 11.408 13 10.8333C13 9.87561 12.6195 8.95711 11.9423 8.27989C11.2651 7.60268 10.3466 7.22222 9.38889 7.22222H3.61111Z" fill="#69B4FF"/>
</svg>
